<svg width="58" height="41" viewBox="0 0 58 41" fill="none" xmlns="http://www.w3.org/2000/svg">
<g filter="url(#filter0_dd_146_2122)">
<g clip-path="url(#clip0_146_2122)">
<mask id="path-1-inside-1_146_2122" fill="white">
<path d="M3 2H55V37H3V2Z"/>
</mask>
<path d="M3 2H55V37H3V2Z" fill="white" fill-opacity="0.01" shape-rendering="crispEdges"/>
<g clip-path="url(#clip1_146_2122)">
<path d="M54.0502 2.80005H3.9502V36.2001H54.0502V2.80005Z" fill="#CF0921"/>
<path d="M29 7.81006V31.1901" stroke="#FCDD09" stroke-width="0.835"/>
<path d="M13.9697 19.5H44.0297" stroke="#FCDD09" stroke-width="0.835"/>
<path d="M18.9795 8.64502L28.9995 19.5" stroke="#FCDD09" stroke-width="0.835"/>
<path d="M39.02 8.64502L29 19.5" stroke="#FCDD09" stroke-width="0.835"/>
<path d="M18.9795 30.355L28.9995 19.5" stroke="#FCDD09" stroke-width="0.835"/>
<path d="M39.02 30.355L29 19.5" stroke="#FCDD09" stroke-width="0.835"/>
<path d="M29.0001 14.824L30.1691 16.995L29.0001 19.166L27.8311 16.995L29.0001 14.824Z" fill="#2D8B57" stroke="#FCDD09" stroke-width="0.334"/>
</g>
</g>
<path d="M3 2V1.2H2.2V2H3ZM55 2H55.8V1.2H55V2ZM55 37V37.8H55.8V37H55ZM3 37H2.2V37.8H3V37ZM3 2V2.8H55V2V1.2H3V2ZM55 2H54.2V37H55H55.8V2H55ZM55 37V36.2H3V37V37.8H55V37ZM3 37H3.8V2H3H2.2V37H3Z" fill="#2D2D2D" fill-opacity="0.1" mask="url(#path-1-inside-1_146_2122)"/>
</g>
<defs>
<filter id="filter0_dd_146_2122" x="0" y="0" width="58" height="41" filterUnits="userSpaceOnUse" color-interpolation-filters="sRGB">
<feFlood flood-opacity="0" result="BackgroundImageFix"/>
<feColorMatrix in="SourceAlpha" type="matrix" values="0 0 0 0 0 0 0 0 0 0 0 0 0 0 0 0 0 0 127 0" result="hardAlpha"/>
<feMorphology radius="1" operator="erode" in="SourceAlpha" result="effect1_dropShadow_146_2122"/>
<feOffset dy="1"/>
<feGaussianBlur stdDeviation="1"/>
<feComposite in2="hardAlpha" operator="out"/>
<feColorMatrix type="matrix" values="0 0 0 0 0 0 0 0 0 0 0 0 0 0 0 0 0 0 0.1 0"/>
<feBlend mode="normal" in2="BackgroundImageFix" result="effect1_dropShadow_146_2122"/>
<feColorMatrix in="SourceAlpha" type="matrix" values="0 0 0 0 0 0 0 0 0 0 0 0 0 0 0 0 0 0 127 0" result="hardAlpha"/>
<feOffset dy="1"/>
<feGaussianBlur stdDeviation="1.5"/>
<feComposite in2="hardAlpha" operator="out"/>
<feColorMatrix type="matrix" values="0 0 0 0 0 0 0 0 0 0 0 0 0 0 0 0 0 0 0.1 0"/>
<feBlend mode="normal" in2="effect1_dropShadow_146_2122" result="effect2_dropShadow_146_2122"/>
<feBlend mode="normal" in="SourceGraphic" in2="effect2_dropShadow_146_2122" result="shape"/>
</filter>
<clipPath id="clip0_146_2122">
<path d="M3 2H55V37H3V2Z" fill="white"/>
</clipPath>
<clipPath id="clip1_146_2122">
<rect width="50.4" height="33.4" fill="white" transform="translate(3.7998 2.80005)"/>
</clipPath>
</defs>
</svg>
