<svg width="58" height="41" viewBox="0 0 58 41" fill="none" xmlns="http://www.w3.org/2000/svg">
<g filter="url(#filter0_dd_146_1947)">
<g clip-path="url(#clip0_146_1947)">
<mask id="path-1-inside-1_146_1947" fill="white">
<path d="M3 2H55V37H3V2Z"/>
</mask>
<path d="M3 2H55V37H3V2Z" fill="white" fill-opacity="0.01" shape-rendering="crispEdges"/>
<g clip-path="url(#clip1_146_1947)">
<path d="M54.0502 2.80005H3.9502V36.2001H54.0502V2.80005Z" fill="white"/>
<path d="M3.9502 2.80005H12.3002L54.0502 30.689V36.2001H45.7002L3.9502 8.31105V2.80005Z" fill="#5393D3"/>
<path d="M29.0001 18.832C30.6603 18.832 32.0061 18.3834 32.0061 17.83C32.0061 17.2766 30.6603 16.828 29.0001 16.828C27.34 16.828 25.9941 17.2766 25.9941 17.83C25.9941 18.3834 27.34 18.832 29.0001 18.832Z" fill="#5393D3"/>
<path d="M26.9961 17.8301L26.1611 25.3451H31.8391L31.0041 17.8301" stroke="#5393D3" stroke-width="1.002"/>
<path d="M24.8252 25.3451H33.1752H24.8252Z" fill="black"/>
<path d="M24.8252 25.3451H33.1752" stroke="#5393D3" stroke-width="1.169"/>
</g>
</g>
<path d="M3 2V1.2H2.2V2H3ZM55 2H55.8V1.2H55V2ZM55 37V37.8H55.8V37H55ZM3 37H2.2V37.8H3V37ZM3 2V2.8H55V2V1.2H3V2ZM55 2H54.2V37H55H55.8V2H55ZM55 37V36.2H3V37V37.8H55V37ZM3 37H3.8V2H3H2.2V37H3Z" fill="#2D2D2D" fill-opacity="0.1" mask="url(#path-1-inside-1_146_1947)"/>
</g>
<defs>
<filter id="filter0_dd_146_1947" x="0" y="0" width="58" height="41" filterUnits="userSpaceOnUse" color-interpolation-filters="sRGB">
<feFlood flood-opacity="0" result="BackgroundImageFix"/>
<feColorMatrix in="SourceAlpha" type="matrix" values="0 0 0 0 0 0 0 0 0 0 0 0 0 0 0 0 0 0 127 0" result="hardAlpha"/>
<feMorphology radius="1" operator="erode" in="SourceAlpha" result="effect1_dropShadow_146_1947"/>
<feOffset dy="1"/>
<feGaussianBlur stdDeviation="1"/>
<feComposite in2="hardAlpha" operator="out"/>
<feColorMatrix type="matrix" values="0 0 0 0 0 0 0 0 0 0 0 0 0 0 0 0 0 0 0.1 0"/>
<feBlend mode="normal" in2="BackgroundImageFix" result="effect1_dropShadow_146_1947"/>
<feColorMatrix in="SourceAlpha" type="matrix" values="0 0 0 0 0 0 0 0 0 0 0 0 0 0 0 0 0 0 127 0" result="hardAlpha"/>
<feOffset dy="1"/>
<feGaussianBlur stdDeviation="1.5"/>
<feComposite in2="hardAlpha" operator="out"/>
<feColorMatrix type="matrix" values="0 0 0 0 0 0 0 0 0 0 0 0 0 0 0 0 0 0 0.1 0"/>
<feBlend mode="normal" in2="effect1_dropShadow_146_1947" result="effect2_dropShadow_146_1947"/>
<feBlend mode="normal" in="SourceGraphic" in2="effect2_dropShadow_146_1947" result="shape"/>
</filter>
<clipPath id="clip0_146_1947">
<path d="M3 2H55V37H3V2Z" fill="white"/>
</clipPath>
<clipPath id="clip1_146_1947">
<rect width="50.4" height="33.4" fill="white" transform="translate(3.7998 2.80005)"/>
</clipPath>
</defs>
</svg>
