<svg width="50" height="33" viewBox="0 0 50 33" fill="none" xmlns="http://www.w3.org/2000/svg">
<g clip-path="url(#clip0_146_3561)">
<path d="M49.75 0H0.25V33H49.75V0Z" fill="white"/>
<path d="M28.3002 0H21.7002V33H28.3002V0Z" fill="#CF0921"/>
<path d="M49.75 13.2H0.25V19.8H49.75V13.2Z" fill="#CF0921"/>
<path d="M15.0996 2.4751H6.84961V8.2501H15.0996V2.4751Z" fill="#CF0921"/>
<path d="M8.66543 1.32007H6.19043V4.29007H8.66543V1.32007Z" fill="#CF0921"/>
<path d="M12.2953 1.32007H9.82031V4.29007H12.2953V1.32007Z" fill="#CF0921"/>
<path d="M15.9252 1.32007H13.4502V4.29007H15.9252V1.32007Z" fill="#CF0921"/>
<path d="M12.4601 4.94995H8.83008V8.24995H12.4601V4.94995Z" fill="white"/>
<path d="M34.8998 1.97998L35.5598 3.95998H37.5398L36.0548 5.11498L36.5498 7.25998L34.8998 5.93998L33.2498 7.25998L33.7448 5.11498L32.2598 3.95998H34.2398L34.8998 1.97998Z" fill="#CF0921"/>
</g>
<defs>
<clipPath id="clip0_146_3561">
<rect width="50" height="33" fill="white"/>
</clipPath>
</defs>
</svg>
