<svg width="58" height="41" viewBox="0 0 58 41" fill="none" xmlns="http://www.w3.org/2000/svg">
<g filter="url(#filter0_dd_146_1986)">
<g clip-path="url(#clip0_146_1986)">
<mask id="path-1-inside-1_146_1986" fill="white">
<path d="M3 2H55V37H3V2Z"/>
</mask>
<path d="M3 2H55V37H3V2Z" fill="white" fill-opacity="0.01" shape-rendering="crispEdges"/>
<g clip-path="url(#clip1_146_1986)">
<path d="M54.0502 2.80005H3.9502V36.2001H54.0502V2.80005Z" fill="#CF0921"/>
<path d="M54.0502 2.80005H3.9502V9.48005H54.0502V2.80005Z" fill="#006837"/>
<path d="M54.0502 9.4801H3.9502V10.8161H54.0502V9.4801Z" fill="white"/>
<path d="M29.0001 23.6751C29.9224 23.6751 30.6701 22.9274 30.6701 22.0051C30.6701 21.0828 29.9224 20.3351 29.0001 20.3351C28.0778 20.3351 27.3301 21.0828 27.3301 22.0051C27.3301 22.9274 28.0778 23.6751 29.0001 23.6751Z" fill="#8B0099"/>
<path d="M26.4952 26.1801C27.4175 26.1801 28.1652 25.4324 28.1652 24.5101C28.1652 23.5878 27.4175 22.8401 26.4952 22.8401C25.5729 22.8401 24.8252 23.5878 24.8252 24.5101C24.8252 25.4324 25.5729 26.1801 26.4952 26.1801Z" fill="#8B0099"/>
<path d="M31.505 26.1801C32.4273 26.1801 33.175 25.4324 33.175 24.5101C33.175 23.5878 32.4273 22.8401 31.505 22.8401C30.5826 22.8401 29.835 23.5878 29.835 24.5101C29.835 25.4324 30.5826 26.1801 31.505 26.1801Z" fill="#8B0099"/>
<path d="M29.0001 28.6851C29.9224 28.6851 30.6701 27.9374 30.6701 27.0151C30.6701 26.0928 29.9224 25.3451 29.0001 25.3451C28.0778 25.3451 27.3301 26.0928 27.3301 27.0151C27.3301 27.9374 28.0778 28.6851 29.0001 28.6851Z" fill="#8B0099"/>
<path d="M23.9893 28.6851C24.9117 28.6851 25.6593 27.9374 25.6593 27.0151C25.6593 26.0928 24.9117 25.3451 23.9893 25.3451C23.067 25.3451 22.3193 26.0928 22.3193 27.0151C22.3193 27.9374 23.067 28.6851 23.9893 28.6851Z" fill="#8B0099"/>
<path d="M34.0098 28.6851C34.9322 28.6851 35.6798 27.9374 35.6798 27.0151C35.6798 26.0928 34.9322 25.3451 34.0098 25.3451C33.0875 25.3451 32.3398 26.0928 32.3398 27.0151C32.3398 27.9374 33.0875 28.6851 34.0098 28.6851Z" fill="#8B0099"/>
<path d="M26.4952 31.1901C27.4175 31.1901 28.1652 30.4424 28.1652 29.5201C28.1652 28.5978 27.4175 27.8501 26.4952 27.8501C25.5729 27.8501 24.8252 28.5978 24.8252 29.5201C24.8252 30.4424 25.5729 31.1901 26.4952 31.1901Z" fill="#8B0099"/>
<path d="M31.505 31.1901C32.4273 31.1901 33.175 30.4424 33.175 29.5201C33.175 28.5978 32.4273 27.8501 31.505 27.8501C30.5826 27.8501 29.835 28.5978 29.835 29.5201C29.835 30.4424 30.5826 31.1901 31.505 31.1901Z" fill="#8B0099"/>
</g>
</g>
<path d="M3 2V1.2H2.2V2H3ZM55 2H55.8V1.2H55V2ZM55 37V37.8H55.8V37H55ZM3 37H2.2V37.8H3V37ZM3 2V2.8H55V2V1.2H3V2ZM55 2H54.2V37H55H55.8V2H55ZM55 37V36.2H3V37V37.8H55V37ZM3 37H3.8V2H3H2.2V37H3Z" fill="#2D2D2D" fill-opacity="0.1" mask="url(#path-1-inside-1_146_1986)"/>
</g>
<defs>
<filter id="filter0_dd_146_1986" x="0" y="0" width="58" height="41" filterUnits="userSpaceOnUse" color-interpolation-filters="sRGB">
<feFlood flood-opacity="0" result="BackgroundImageFix"/>
<feColorMatrix in="SourceAlpha" type="matrix" values="0 0 0 0 0 0 0 0 0 0 0 0 0 0 0 0 0 0 127 0" result="hardAlpha"/>
<feMorphology radius="1" operator="erode" in="SourceAlpha" result="effect1_dropShadow_146_1986"/>
<feOffset dy="1"/>
<feGaussianBlur stdDeviation="1"/>
<feComposite in2="hardAlpha" operator="out"/>
<feColorMatrix type="matrix" values="0 0 0 0 0 0 0 0 0 0 0 0 0 0 0 0 0 0 0.1 0"/>
<feBlend mode="normal" in2="BackgroundImageFix" result="effect1_dropShadow_146_1986"/>
<feColorMatrix in="SourceAlpha" type="matrix" values="0 0 0 0 0 0 0 0 0 0 0 0 0 0 0 0 0 0 127 0" result="hardAlpha"/>
<feOffset dy="1"/>
<feGaussianBlur stdDeviation="1.5"/>
<feComposite in2="hardAlpha" operator="out"/>
<feColorMatrix type="matrix" values="0 0 0 0 0 0 0 0 0 0 0 0 0 0 0 0 0 0 0.1 0"/>
<feBlend mode="normal" in2="effect1_dropShadow_146_1986" result="effect2_dropShadow_146_1986"/>
<feBlend mode="normal" in="SourceGraphic" in2="effect2_dropShadow_146_1986" result="shape"/>
</filter>
<clipPath id="clip0_146_1986">
<path d="M3 2H55V37H3V2Z" fill="white"/>
</clipPath>
<clipPath id="clip1_146_1986">
<rect width="50.4" height="33.4" fill="white" transform="translate(3.7998 2.80005)"/>
</clipPath>
</defs>
</svg>
