<svg width="58" height="41" viewBox="0 0 58 41" fill="none" xmlns="http://www.w3.org/2000/svg">
<g filter="url(#filter0_dd_146_1735)">
<mask id="path-1-inside-1_146_1735" fill="white">
<path d="M3 2H55V37H3V2Z"/>
</mask>
<path d="M3 2H55V37H3V2Z" fill="white" fill-opacity="0.01" shape-rendering="crispEdges"/>
<path d="M3 2V1.2H2.2V2H3ZM55 2H55.8V1.2H55V2ZM55 37V37.8H55.8V37H55ZM3 37H2.2V37.8H3V37ZM3 2V2.8H55V2V1.2H3V2ZM55 2H54.2V37H55H55.8V2H55ZM55 37V36.2H3V37V37.8H55V37ZM3 37H3.8V2H3H2.2V37H3Z" fill="#2D2D2D" fill-opacity="0.1" mask="url(#path-1-inside-1_146_1735)"/>
<g clip-path="url(#clip0_146_1735)">
<path d="M54.0502 2.80005H3.9502V36.2001H54.0502V2.80005Z" fill="white"/>
<path d="M35.6793 11.15H22.3193V22.84H35.6793V11.15Z" fill="#CF0921"/>
<path d="M25.1584 8.64502H21.4844V14.49H25.1584V8.64502Z" fill="#CF0921"/>
<path d="M30.8371 8.64502H27.1631V14.49H30.8371V8.64502Z" fill="#CF0921"/>
<path d="M36.5148 8.64502H32.8408V14.49H36.5148V8.64502Z" fill="#CF0921"/>
<path d="M32.3402 16.995H25.6602V22.84H32.3402V16.995Z" fill="white"/>
<path d="M8.95996 26.18C12.3 24.51 15.64 24.51 18.98 26.18C22.32 27.85 25.66 27.85 29 26.18C32.34 24.51 35.68 24.51 39.02 26.18C42.36 27.85 45.7 27.85 49.04 26.18" stroke="#003DA5" stroke-width="1.336"/>
<path d="M8.95996 29.5201C12.3 27.8501 15.64 27.8501 18.98 29.5201C22.32 31.1901 25.66 31.1901 29 29.5201C32.34 27.8501 35.68 27.8501 39.02 29.5201C42.36 31.1901 45.7 31.1901 49.04 29.5201" stroke="#003DA5" stroke-width="1.336"/>
</g>
</g>
<defs>
<filter id="filter0_dd_146_1735" x="0" y="0" width="58" height="41" filterUnits="userSpaceOnUse" color-interpolation-filters="sRGB">
<feFlood flood-opacity="0" result="BackgroundImageFix"/>
<feColorMatrix in="SourceAlpha" type="matrix" values="0 0 0 0 0 0 0 0 0 0 0 0 0 0 0 0 0 0 127 0" result="hardAlpha"/>
<feMorphology radius="1" operator="erode" in="SourceAlpha" result="effect1_dropShadow_146_1735"/>
<feOffset dy="1"/>
<feGaussianBlur stdDeviation="1"/>
<feComposite in2="hardAlpha" operator="out"/>
<feColorMatrix type="matrix" values="0 0 0 0 0 0 0 0 0 0 0 0 0 0 0 0 0 0 0.1 0"/>
<feBlend mode="normal" in2="BackgroundImageFix" result="effect1_dropShadow_146_1735"/>
<feColorMatrix in="SourceAlpha" type="matrix" values="0 0 0 0 0 0 0 0 0 0 0 0 0 0 0 0 0 0 127 0" result="hardAlpha"/>
<feOffset dy="1"/>
<feGaussianBlur stdDeviation="1.5"/>
<feComposite in2="hardAlpha" operator="out"/>
<feColorMatrix type="matrix" values="0 0 0 0 0 0 0 0 0 0 0 0 0 0 0 0 0 0 0.1 0"/>
<feBlend mode="normal" in2="effect1_dropShadow_146_1735" result="effect2_dropShadow_146_1735"/>
<feBlend mode="normal" in="SourceGraphic" in2="effect2_dropShadow_146_1735" result="shape"/>
</filter>
<clipPath id="clip0_146_1735">
<rect width="50.4" height="33.4" fill="white" transform="translate(3.7998 2.80005)"/>
</clipPath>
</defs>
</svg>
