<svg width="244" height="28" viewBox="0 0 244 28" fill="none" xmlns="http://www.w3.org/2000/svg">
<rect width="28" height="28" fill="#8B1E3F"/>
<path d="M14.4785 10.1426C14.3652 10.1543 14.2012 10.1816 13.9863 10.2246C13.7754 10.2637 13.5977 10.334 13.4531 10.4355C13.3047 10.5332 13.1992 10.709 13.1367 10.9629C13.0781 11.2168 13.0488 11.5977 13.0488 12.1055V15.1992C13.0488 16.1094 12.7402 16.8418 12.123 17.3965C11.5059 17.9512 10.6895 18.2285 9.67383 18.2285C8.49023 18.2285 7.57422 17.9609 6.92578 17.4258C6.27734 16.8906 5.95312 16.1445 5.95312 15.1875V10.9336C5.95312 10.7969 5.92578 10.6797 5.87109 10.582C5.82031 10.4844 5.7207 10.3965 5.57227 10.3184C5.4707 10.2676 5.3457 10.2266 5.19727 10.1953C5.04883 10.1641 4.92773 10.1426 4.83398 10.1309V9.68555H9.19336V10.1309C9.06836 10.1387 8.94141 10.1543 8.8125 10.1777C8.68359 10.1973 8.55273 10.2285 8.41992 10.2715C8.27148 10.3184 8.17188 10.3965 8.12109 10.5059C8.07031 10.6152 8.04492 10.7383 8.04492 10.875V15.0703C8.04492 15.8945 8.22656 16.4941 8.58984 16.8691C8.95312 17.2441 9.48047 17.4316 10.1719 17.4316C10.8516 17.4316 11.3848 17.2246 11.7715 16.8105C12.1582 16.3965 12.3516 15.7871 12.3516 14.9824V12.1641C12.3516 11.6641 12.3164 11.291 12.2461 11.0449C12.1797 10.7949 12.0762 10.6152 11.9355 10.5059C11.834 10.4199 11.6562 10.3418 11.4023 10.2715C11.1523 10.2012 10.9766 10.1582 10.875 10.1426V9.68555H14.4785V10.1426ZM22.2832 11.8066H21.8379C21.7246 11.4902 21.5293 11.1699 21.252 10.8457C20.9746 10.5215 20.6992 10.3301 20.4258 10.2715C20.3086 10.2441 20.1445 10.2285 19.9336 10.2246C19.7266 10.2168 19.5547 10.2129 19.418 10.2129H18.2109V13.4238H19.0664C19.2812 13.4238 19.4766 13.3984 19.6523 13.3477C19.8281 13.2969 19.9883 13.1992 20.1328 13.0547C20.2227 12.9648 20.3125 12.8066 20.4023 12.5801C20.4961 12.3535 20.5566 12.1562 20.584 11.9883H21.0293V15.457H20.584C20.5605 15.293 20.5 15.0879 20.4023 14.8418C20.3086 14.5918 20.2188 14.4199 20.1328 14.3262C20.0039 14.1855 19.8516 14.0898 19.6758 14.0391C19.5 13.9844 19.2969 13.957 19.0664 13.957H18.2109V16.3535C18.2109 16.6035 18.2285 16.8027 18.2637 16.9512C18.3027 17.0957 18.373 17.207 18.4746 17.2852C18.5723 17.3594 18.7051 17.4082 18.873 17.4316C19.0449 17.4551 19.2773 17.4668 19.5703 17.4668C19.707 17.4668 19.8711 17.4648 20.0625 17.4609C20.2539 17.457 20.4219 17.4453 20.5664 17.4258C20.7305 17.4062 20.8828 17.377 21.0234 17.3379C21.168 17.2988 21.2754 17.2422 21.3457 17.168C21.5332 16.9766 21.7441 16.6855 21.9785 16.2949C22.2129 15.9004 22.3672 15.6055 22.4414 15.4102H22.8691L22.7109 18H14.9121V17.543C15.0215 17.5352 15.1699 17.5195 15.3574 17.4961C15.5449 17.4727 15.6777 17.4453 15.7559 17.4141C15.9043 17.3516 16.0039 17.2734 16.0547 17.1797C16.1055 17.082 16.1309 16.959 16.1309 16.8105V10.9453C16.1309 10.8047 16.1094 10.6895 16.0664 10.5996C16.0234 10.5059 15.9199 10.4219 15.7559 10.3477C15.6543 10.3008 15.5117 10.2578 15.3281 10.2188C15.1445 10.1797 15.0059 10.1543 14.9121 10.1426V9.68555H22.2832V11.8066Z" fill="white"/>
<path d="M48.9824 10.1016C48.873 10.1055 48.7129 10.1289 48.502 10.1719C48.291 10.2148 48.1191 10.2793 47.9863 10.3652C47.8535 10.4551 47.7617 10.6406 47.7109 10.9219C47.6602 11.2031 47.6348 11.5469 47.6348 11.9531V15.5684C47.6348 16.0293 47.5391 16.4297 47.3477 16.7695C47.1562 17.1094 46.9043 17.3887 46.5918 17.6074C46.2832 17.8184 45.957 17.9688 45.6133 18.0586C45.2734 18.1523 44.9473 18.1992 44.6348 18.1992C44.1348 18.1992 43.6895 18.1328 43.2988 18C42.9082 17.8711 42.5801 17.6953 42.3145 17.4727C42.0527 17.25 41.8555 16.9961 41.7227 16.7109C41.5898 16.4219 41.5234 16.1211 41.5234 15.8086V10.8926C41.5234 10.7559 41.5 10.6426 41.4531 10.5527C41.4102 10.459 41.3203 10.373 41.1836 10.2949C41.0859 10.2402 40.9609 10.1973 40.8086 10.166C40.6562 10.1309 40.5312 10.1094 40.4336 10.1016V9.68555H43.8965V10.1016C43.7871 10.1055 43.6484 10.123 43.4805 10.1543C43.3164 10.1855 43.1953 10.2148 43.1172 10.2422C42.9844 10.2891 42.8945 10.3672 42.8477 10.4766C42.8047 10.5859 42.7832 10.7051 42.7832 10.834V15.4277C42.7832 15.6504 42.8066 15.8848 42.8535 16.1309C42.9043 16.373 43.002 16.5996 43.1465 16.8105C43.2988 17.0254 43.5059 17.2012 43.7676 17.3379C44.0293 17.4746 44.3887 17.543 44.8457 17.543C45.2754 17.543 45.6348 17.4746 45.9238 17.3379C46.2168 17.2012 46.4473 17.0215 46.6152 16.7988C46.7754 16.5879 46.8887 16.3672 46.9551 16.1367C47.0215 15.9062 47.0547 15.6738 47.0547 15.4395V12.0293C47.0547 11.5957 47.0234 11.2422 46.9609 10.9688C46.8984 10.6914 46.8066 10.5098 46.6855 10.4238C46.5488 10.3262 46.3613 10.25 46.123 10.1953C45.8887 10.1406 45.709 10.1094 45.584 10.1016V9.68555H48.9824V10.1016ZM59.9875 10.1016C59.8781 10.1055 59.7102 10.1367 59.4836 10.1953C59.257 10.2539 59.0949 10.3145 58.9973 10.377C58.8566 10.4746 58.7609 10.6621 58.7102 10.9395C58.6633 11.2168 58.6398 11.5684 58.6398 11.9941V18.082H58.1301L53.091 11.2793V15.5684C53.091 16.0488 53.1203 16.418 53.1789 16.6758C53.2414 16.9336 53.3352 17.1172 53.4602 17.2266C53.55 17.3125 53.7355 17.3926 54.0168 17.4668C54.298 17.541 54.4836 17.5801 54.5734 17.584V18H51.1633V17.584C51.2688 17.5762 51.4465 17.5391 51.6965 17.4727C51.9465 17.4023 52.1027 17.3398 52.1652 17.2852C52.302 17.1758 52.3957 17.0098 52.4465 16.7871C52.4973 16.5605 52.5227 16.1758 52.5227 15.6328V11.5371C52.5227 11.3574 52.4914 11.1777 52.4289 10.998C52.3664 10.8184 52.2824 10.6797 52.177 10.582C52.0363 10.4531 51.8449 10.3438 51.6027 10.2539C51.3645 10.1602 51.1711 10.1094 51.0227 10.1016V9.68555H53.3957L58.0715 16.0254V12.0703C58.0715 11.5859 58.0402 11.2148 57.9777 10.957C57.9152 10.6953 57.8254 10.5215 57.7082 10.4355C57.5988 10.3613 57.4191 10.2891 57.1691 10.2188C56.923 10.1484 56.7355 10.1094 56.6066 10.1016V9.68555H59.9875V10.1016ZM66.1 18H62.3559V17.584C62.4613 17.5762 62.6137 17.5645 62.8129 17.5488C63.0121 17.5332 63.1527 17.5098 63.2348 17.4785C63.3637 17.4277 63.4574 17.3594 63.516 17.2734C63.5746 17.1836 63.6039 17.0605 63.6039 16.9043V10.8809C63.6039 10.7441 63.5824 10.6309 63.5395 10.541C63.4965 10.4473 63.3949 10.3691 63.2348 10.3066C63.1176 10.2598 62.9691 10.2168 62.7895 10.1777C62.6137 10.1348 62.4691 10.1094 62.3559 10.1016V9.68555H66.1V10.1016C65.9789 10.1055 65.8344 10.1211 65.6664 10.1484C65.4984 10.1719 65.352 10.2031 65.227 10.2422C65.0785 10.2891 64.9789 10.3652 64.9281 10.4707C64.8773 10.5762 64.852 10.6934 64.852 10.8223V16.8398C64.852 16.9688 64.8793 17.084 64.934 17.1855C64.9926 17.2832 65.0902 17.3613 65.227 17.4199C65.309 17.4512 65.4418 17.4863 65.6254 17.5254C65.8129 17.5605 65.9711 17.5801 66.1 17.584V18ZM76.6129 10.1016C76.5113 10.1055 76.3883 10.1289 76.2437 10.1719C76.0992 10.2109 75.9801 10.2598 75.8863 10.3184C75.7535 10.4004 75.6461 10.5059 75.5641 10.6348C75.4859 10.7637 75.4078 10.916 75.3297 11.0918C75.068 11.7129 74.6754 12.6816 74.152 13.998C73.6285 15.3105 73.0895 16.6797 72.5348 18.1055H72.0484C71.4859 16.5938 70.943 15.1367 70.4195 13.7344C69.8961 12.332 69.5406 11.3848 69.3531 10.8926C69.3062 10.7715 69.2437 10.666 69.1656 10.5762C69.0875 10.4824 68.984 10.3945 68.8551 10.3125C68.7496 10.2461 68.6324 10.1973 68.5035 10.166C68.3746 10.1309 68.2555 10.1094 68.1461 10.1016V9.68555H71.5855V10.1016C71.2926 10.1172 71.0445 10.1465 70.8414 10.1895C70.6422 10.2324 70.5426 10.3086 70.5426 10.418C70.5426 10.4609 70.5504 10.5117 70.566 10.5703C70.5816 10.6289 70.5953 10.6758 70.607 10.7109C70.7516 11.0938 70.9859 11.7188 71.3102 12.5859C71.6344 13.4492 72.0953 14.6797 72.693 16.2773C72.9898 15.5547 73.3316 14.7012 73.7184 13.7168C74.1051 12.7324 74.3648 12.0566 74.4977 11.6895C74.6266 11.334 74.7008 11.0879 74.7203 10.9512C74.7437 10.8145 74.7555 10.7031 74.7555 10.6172C74.7555 10.5273 74.7145 10.4531 74.6324 10.3945C74.5543 10.332 74.4488 10.2793 74.316 10.2363C74.1871 10.1973 74.0562 10.168 73.9234 10.1484C73.7906 10.1289 73.6559 10.1133 73.5191 10.1016V9.68555H76.6129V10.1016ZM85.7371 15.5508L85.5789 18H78.6766V17.584C78.7938 17.5762 78.95 17.5605 79.1453 17.5371C79.3406 17.5098 79.4676 17.4824 79.5262 17.4551C79.6512 17.3965 79.7371 17.3203 79.784 17.2266C79.8348 17.1328 79.8602 17.0137 79.8602 16.8691V10.8926C79.8602 10.7637 79.8387 10.6504 79.7957 10.5527C79.7527 10.4512 79.6629 10.3691 79.5262 10.3066C79.4207 10.2559 79.2781 10.2109 79.0984 10.1719C78.9227 10.1328 78.782 10.1094 78.6766 10.1016V9.68555H85.1102V11.6895H84.6707C84.5926 11.3926 84.4227 11.0781 84.1609 10.7461C83.9031 10.4102 83.657 10.2266 83.4227 10.1953C83.3016 10.1797 83.157 10.168 82.9891 10.1602C82.8211 10.1523 82.6297 10.1484 82.4148 10.1484H81.1082V13.4531H82.0457C82.3465 13.4531 82.5652 13.4258 82.702 13.3711C82.8426 13.3125 82.9656 13.2168 83.0711 13.084C83.157 12.9707 83.2293 12.8203 83.2879 12.6328C83.3504 12.4414 83.3914 12.2617 83.4109 12.0938H83.8504V15.3457H83.4109C83.3953 15.1582 83.3523 14.9609 83.282 14.7539C83.2156 14.543 83.1453 14.3906 83.0711 14.2969C82.95 14.1445 82.8113 14.0449 82.6551 13.998C82.5027 13.9512 82.2996 13.9277 82.0457 13.9277H81.1082V16.4238C81.1082 16.6738 81.1258 16.8711 81.1609 17.0156C81.1961 17.1602 81.2645 17.2695 81.366 17.3438C81.4676 17.418 81.6063 17.4668 81.782 17.4902C81.9578 17.5098 82.2078 17.5195 82.532 17.5195C82.6609 17.5195 82.8309 17.5195 83.0418 17.5195C83.2527 17.5195 83.4305 17.5117 83.575 17.4961C83.7234 17.4805 83.8758 17.4531 84.032 17.4141C84.1922 17.3711 84.3055 17.3145 84.3719 17.2441C84.5516 17.0566 84.7391 16.7734 84.9344 16.3945C85.1336 16.0117 85.2605 15.7305 85.3152 15.5508H85.7371ZM96.4844 18H94.2461C93.75 17.2227 93.3008 16.5508 92.8984 15.9844C92.5 15.418 92.0664 14.834 91.5977 14.2324H90.748V16.8691C90.748 17.0059 90.7695 17.127 90.8125 17.2324C90.8555 17.334 90.9473 17.4121 91.0879 17.4668C91.1582 17.4941 91.2812 17.5195 91.457 17.543C91.6328 17.5664 91.7812 17.5801 91.9023 17.584V18H88.3867V17.584C88.4805 17.5762 88.6152 17.5625 88.791 17.543C88.9707 17.5234 89.0957 17.498 89.166 17.4668C89.2832 17.416 89.3672 17.3418 89.418 17.2441C89.4727 17.1465 89.5 17.0215 89.5 16.8691V10.8574C89.5 10.7207 89.4805 10.5996 89.4414 10.4941C89.4023 10.3887 89.3105 10.3086 89.166 10.2539C89.0684 10.2188 88.9414 10.1875 88.7852 10.1602C88.6289 10.1289 88.4961 10.1094 88.3867 10.1016V9.68555H92.2246C92.5762 9.68555 92.9062 9.72266 93.2148 9.79688C93.5234 9.86719 93.8027 9.98242 94.0527 10.1426C94.2949 10.2988 94.4883 10.5039 94.6328 10.7578C94.7773 11.0078 94.8496 11.3105 94.8496 11.666C94.8496 11.9863 94.8008 12.2695 94.7031 12.5156C94.6055 12.7617 94.4609 12.9746 94.2695 13.1543C94.0938 13.3223 93.8828 13.4688 93.6367 13.5938C93.3906 13.7148 93.1191 13.8184 92.8223 13.9043C93.2324 14.4473 93.5723 14.9043 93.8418 15.2754C94.1152 15.6465 94.4492 16.0977 94.8438 16.6289C95.0156 16.8633 95.1699 17.0371 95.3066 17.1504C95.4473 17.2598 95.5859 17.3496 95.7227 17.4199C95.8242 17.4707 95.9512 17.5098 96.1035 17.5371C96.2559 17.5645 96.3828 17.5801 96.4844 17.584V18ZM93.4023 11.8008C93.4023 11.2969 93.2578 10.8984 92.9688 10.6055C92.6797 10.3086 92.2715 10.1602 91.7441 10.1602H90.748V13.7285H91.5156C92.0547 13.7285 92.5039 13.5566 92.8633 13.2129C93.2227 12.8652 93.4023 12.3945 93.4023 11.8008ZM103.786 14.1855C103.962 14.3809 104.091 14.5957 104.173 14.8301C104.259 15.0605 104.302 15.3301 104.302 15.6387C104.302 16.373 104.03 16.9785 103.487 17.4551C102.945 17.9316 102.271 18.1699 101.466 18.1699C101.095 18.1699 100.724 18.1133 100.353 18C99.9816 17.8828 99.6613 17.7422 99.3918 17.5781L99.1398 18.0059H98.6711L98.5891 15.1582H99.0637C99.1613 15.5098 99.2746 15.8281 99.4035 16.1133C99.5363 16.3945 99.7102 16.6582 99.925 16.9043C100.128 17.1348 100.364 17.3184 100.634 17.4551C100.907 17.5918 101.224 17.6602 101.583 17.6602C101.853 17.6602 102.087 17.625 102.286 17.5547C102.489 17.4844 102.654 17.3848 102.779 17.2559C102.904 17.127 102.995 16.9766 103.054 16.8047C103.116 16.6289 103.148 16.4277 103.148 16.2012C103.148 15.8691 103.054 15.5605 102.866 15.2754C102.679 14.9863 102.4 14.7676 102.029 14.6191C101.775 14.5176 101.484 14.4062 101.155 14.2852C100.827 14.1602 100.544 14.043 100.306 13.9336C99.8371 13.7227 99.4719 13.4473 99.2102 13.1074C98.9523 12.7637 98.8234 12.3164 98.8234 11.7656C98.8234 11.4492 98.8879 11.1543 99.0168 10.8809C99.1457 10.6074 99.3293 10.3633 99.5676 10.1484C99.7941 9.94531 100.062 9.78711 100.37 9.67383C100.679 9.55664 101.001 9.49805 101.337 9.49805C101.72 9.49805 102.062 9.55664 102.362 9.67383C102.667 9.79102 102.945 9.92773 103.195 10.084L103.435 9.68555H103.904L103.95 12.4453H103.476C103.39 12.1289 103.292 11.8262 103.183 11.5371C103.077 11.248 102.939 10.9863 102.767 10.752C102.599 10.5254 102.394 10.3457 102.152 10.2129C101.909 10.0762 101.612 10.0078 101.261 10.0078C100.89 10.0078 100.573 10.127 100.312 10.3652C100.05 10.6035 99.9191 10.8945 99.9191 11.2383C99.9191 11.5977 100.003 11.8965 100.171 12.1348C100.339 12.3691 100.583 12.5625 100.904 12.7148C101.189 12.8516 101.468 12.9707 101.741 13.0723C102.019 13.1699 102.286 13.2754 102.544 13.3887C102.779 13.4902 103.003 13.6055 103.218 13.7344C103.437 13.8633 103.626 14.0137 103.786 14.1855ZM110.784 18H107.039V17.584C107.145 17.5762 107.297 17.5645 107.496 17.5488C107.696 17.5332 107.836 17.5098 107.918 17.4785C108.047 17.4277 108.141 17.3594 108.2 17.2734C108.258 17.1836 108.287 17.0605 108.287 16.9043V10.8809C108.287 10.7441 108.266 10.6309 108.223 10.541C108.18 10.4473 108.079 10.3691 107.918 10.3066C107.801 10.2598 107.653 10.2168 107.473 10.1777C107.297 10.1348 107.153 10.1094 107.039 10.1016V9.68555H110.784V10.1016C110.662 10.1055 110.518 10.1211 110.35 10.1484C110.182 10.1719 110.036 10.2031 109.911 10.2422C109.762 10.2891 109.662 10.3652 109.612 10.4707C109.561 10.5762 109.536 10.6934 109.536 10.8223V16.8398C109.536 16.9688 109.563 17.084 109.618 17.1855C109.676 17.2832 109.774 17.3613 109.911 17.4199C109.993 17.4512 110.125 17.4863 110.309 17.5254C110.496 17.5605 110.655 17.5801 110.784 17.584V18ZM121.589 13.8926C121.589 14.5996 121.457 15.2129 121.191 15.7324C120.925 16.252 120.58 16.6777 120.154 17.0098C119.724 17.3418 119.242 17.5898 118.707 17.7539C118.171 17.918 117.619 18 117.048 18H113.603V17.584C113.716 17.584 113.863 17.5742 114.043 17.5547C114.226 17.5312 114.347 17.5059 114.406 17.4785C114.523 17.4277 114.607 17.3535 114.658 17.2559C114.713 17.1543 114.74 17.0332 114.74 16.8926V10.8926C114.74 10.7598 114.716 10.6406 114.67 10.5352C114.627 10.4297 114.539 10.3457 114.406 10.2832C114.285 10.2246 114.154 10.1816 114.013 10.1543C113.873 10.127 113.752 10.1094 113.65 10.1016V9.68555H117.283C117.783 9.68555 118.275 9.76367 118.759 9.91992C119.244 10.0723 119.666 10.2793 120.025 10.541C120.513 10.8887 120.896 11.3438 121.173 11.9062C121.451 12.4688 121.589 13.1309 121.589 13.8926ZM120.154 13.8867C120.154 13.3281 120.08 12.8242 119.931 12.375C119.783 11.9219 119.566 11.5273 119.281 11.1914C119.011 10.8711 118.679 10.6191 118.285 10.4355C117.894 10.252 117.459 10.1602 116.978 10.1602C116.818 10.1602 116.636 10.1641 116.433 10.1719C116.234 10.1758 116.086 10.1797 115.988 10.1836V16.5762C115.988 16.9316 116.091 17.1777 116.298 17.3145C116.505 17.4512 116.824 17.5195 117.254 17.5195C117.75 17.5195 118.183 17.4316 118.554 17.2559C118.925 17.0801 119.226 16.8359 119.457 16.5234C119.699 16.1953 119.875 15.8164 119.984 15.3867C120.097 14.9531 120.154 14.4531 120.154 13.8867ZM132.167 18H128.704V17.584C129.009 17.5645 129.261 17.5254 129.46 17.4668C129.663 17.4082 129.764 17.3359 129.764 17.25C129.764 17.2148 129.761 17.1719 129.753 17.1211C129.745 17.0703 129.733 17.0254 129.718 16.9863L129.026 15.123H126.114C126.005 15.3965 125.915 15.6348 125.845 15.8379C125.778 16.041 125.718 16.2285 125.663 16.4004C125.612 16.5684 125.577 16.7051 125.557 16.8105C125.538 16.916 125.528 17.002 125.528 17.0684C125.528 17.2246 125.651 17.3457 125.897 17.4316C126.143 17.5176 126.421 17.5684 126.729 17.584V18H123.6V17.584C123.702 17.5762 123.829 17.5547 123.981 17.5195C124.134 17.4805 124.259 17.4297 124.356 17.3672C124.512 17.2617 124.634 17.1523 124.72 17.0391C124.805 16.9219 124.889 16.7617 124.971 16.5586C125.389 15.5156 125.85 14.3438 126.354 13.043C126.858 11.7422 127.307 10.584 127.702 9.56836H128.171L130.942 16.7402C131.001 16.8926 131.067 17.0156 131.141 17.1094C131.216 17.2031 131.319 17.2949 131.452 17.3848C131.542 17.4395 131.659 17.4863 131.804 17.5254C131.948 17.5605 132.069 17.5801 132.167 17.584V18ZM128.815 14.6016L127.555 11.3789L126.319 14.6016H128.815ZM142.229 13.8926C142.229 14.5996 142.096 15.2129 141.83 15.7324C141.564 16.252 141.219 16.6777 140.793 17.0098C140.363 17.3418 139.881 17.5898 139.346 17.7539C138.811 17.918 138.258 18 137.688 18H134.242V17.584C134.355 17.584 134.502 17.5742 134.682 17.5547C134.865 17.5312 134.986 17.5059 135.045 17.4785C135.162 17.4277 135.246 17.3535 135.297 17.2559C135.352 17.1543 135.379 17.0332 135.379 16.8926V10.8926C135.379 10.7598 135.355 10.6406 135.309 10.5352C135.266 10.4297 135.178 10.3457 135.045 10.2832C134.924 10.2246 134.793 10.1816 134.652 10.1543C134.512 10.127 134.391 10.1094 134.289 10.1016V9.68555H137.922C138.422 9.68555 138.914 9.76367 139.398 9.91992C139.883 10.0723 140.305 10.2793 140.664 10.541C141.152 10.8887 141.535 11.3438 141.812 11.9062C142.09 12.4688 142.229 13.1309 142.229 13.8926ZM140.793 13.8867C140.793 13.3281 140.719 12.8242 140.57 12.375C140.422 11.9219 140.205 11.5273 139.92 11.1914C139.65 10.8711 139.318 10.6191 138.924 10.4355C138.533 10.252 138.098 10.1602 137.617 10.1602C137.457 10.1602 137.275 10.1641 137.072 10.1719C136.873 10.1758 136.725 10.1797 136.627 10.1836V16.5762C136.627 16.9316 136.73 17.1777 136.938 17.3145C137.145 17.4512 137.463 17.5195 137.893 17.5195C138.389 17.5195 138.822 17.4316 139.193 17.2559C139.564 17.0801 139.865 16.8359 140.096 16.5234C140.338 16.1953 140.514 15.8164 140.623 15.3867C140.736 14.9531 140.793 14.4531 140.793 13.8867ZM152.044 15.5508L151.886 18H144.984V17.584C145.101 17.5762 145.257 17.5605 145.452 17.5371C145.648 17.5098 145.775 17.4824 145.833 17.4551C145.958 17.3965 146.044 17.3203 146.091 17.2266C146.142 17.1328 146.167 17.0137 146.167 16.8691V10.8926C146.167 10.7637 146.146 10.6504 146.103 10.5527C146.06 10.4512 145.97 10.3691 145.833 10.3066C145.728 10.2559 145.585 10.2109 145.405 10.1719C145.23 10.1328 145.089 10.1094 144.984 10.1016V9.68555H151.417V11.6895H150.978C150.9 11.3926 150.73 11.0781 150.468 10.7461C150.21 10.4102 149.964 10.2266 149.73 10.1953C149.609 10.1797 149.464 10.168 149.296 10.1602C149.128 10.1523 148.937 10.1484 148.722 10.1484H147.415V13.4531H148.353C148.654 13.4531 148.872 13.4258 149.009 13.3711C149.15 13.3125 149.273 13.2168 149.378 13.084C149.464 12.9707 149.536 12.8203 149.595 12.6328C149.657 12.4414 149.698 12.2617 149.718 12.0938H150.157V15.3457H149.718C149.702 15.1582 149.659 14.9609 149.589 14.7539C149.523 14.543 149.452 14.3906 149.378 14.2969C149.257 14.1445 149.118 14.0449 148.962 13.998C148.81 13.9512 148.607 13.9277 148.353 13.9277H147.415V16.4238C147.415 16.6738 147.433 16.8711 147.468 17.0156C147.503 17.1602 147.571 17.2695 147.673 17.3438C147.775 17.418 147.913 17.4668 148.089 17.4902C148.265 17.5098 148.515 17.5195 148.839 17.5195C148.968 17.5195 149.138 17.5195 149.349 17.5195C149.56 17.5195 149.738 17.5117 149.882 17.4961C150.03 17.4805 150.183 17.4531 150.339 17.4141C150.499 17.3711 150.613 17.3145 150.679 17.2441C150.859 17.0566 151.046 16.7734 151.241 16.3945C151.441 16.0117 151.568 15.7305 151.622 15.5508H152.044ZM159.868 14.1855C160.043 14.3809 160.172 14.5957 160.254 14.8301C160.34 15.0605 160.383 15.3301 160.383 15.6387C160.383 16.373 160.112 16.9785 159.569 17.4551C159.026 17.9316 158.352 18.1699 157.547 18.1699C157.176 18.1699 156.805 18.1133 156.434 18C156.063 17.8828 155.743 17.7422 155.473 17.5781L155.221 18.0059H154.752L154.67 15.1582H155.145C155.243 15.5098 155.356 15.8281 155.485 16.1133C155.618 16.3945 155.791 16.6582 156.006 16.9043C156.209 17.1348 156.446 17.3184 156.715 17.4551C156.989 17.5918 157.305 17.6602 157.664 17.6602C157.934 17.6602 158.168 17.625 158.368 17.5547C158.571 17.4844 158.735 17.3848 158.86 17.2559C158.985 17.127 159.077 16.9766 159.135 16.8047C159.198 16.6289 159.229 16.4277 159.229 16.2012C159.229 15.8691 159.135 15.5605 158.948 15.2754C158.76 14.9863 158.481 14.7676 158.11 14.6191C157.856 14.5176 157.565 14.4062 157.237 14.2852C156.909 14.1602 156.625 14.043 156.387 13.9336C155.918 13.7227 155.553 13.4473 155.291 13.1074C155.034 12.7637 154.905 12.3164 154.905 11.7656C154.905 11.4492 154.969 11.1543 155.098 10.8809C155.227 10.6074 155.411 10.3633 155.649 10.1484C155.875 9.94531 156.143 9.78711 156.452 9.67383C156.76 9.55664 157.082 9.49805 157.418 9.49805C157.801 9.49805 158.143 9.55664 158.444 9.67383C158.748 9.79102 159.026 9.92773 159.276 10.084L159.516 9.68555H159.985L160.032 12.4453H159.557C159.471 12.1289 159.373 11.8262 159.264 11.5371C159.159 11.248 159.02 10.9863 158.848 10.752C158.68 10.5254 158.475 10.3457 158.233 10.2129C157.991 10.0762 157.694 10.0078 157.342 10.0078C156.971 10.0078 156.655 10.127 156.393 10.3652C156.131 10.6035 156 10.8945 156 11.2383C156 11.5977 156.084 11.8965 156.252 12.1348C156.42 12.3691 156.664 12.5625 156.985 12.7148C157.27 12.8516 157.549 12.9707 157.823 13.0723C158.1 13.1699 158.368 13.2754 158.625 13.3887C158.86 13.4902 159.084 13.6055 159.299 13.7344C159.518 13.8633 159.707 14.0137 159.868 14.1855ZM174.917 15.5508L174.759 18H167.856V17.584C167.973 17.5762 168.13 17.5605 168.325 17.5371C168.52 17.5098 168.647 17.4824 168.706 17.4551C168.831 17.3965 168.917 17.3203 168.964 17.2266C169.014 17.1328 169.04 17.0137 169.04 16.8691V10.8926C169.04 10.7637 169.018 10.6504 168.975 10.5527C168.932 10.4512 168.843 10.3691 168.706 10.3066C168.6 10.2559 168.458 10.2109 168.278 10.1719C168.102 10.1328 167.962 10.1094 167.856 10.1016V9.68555H174.29V11.6895H173.85C173.772 11.3926 173.602 11.0781 173.341 10.7461C173.083 10.4102 172.837 10.2266 172.602 10.1953C172.481 10.1797 172.337 10.168 172.169 10.1602C172.001 10.1523 171.809 10.1484 171.595 10.1484H170.288V13.4531H171.225C171.526 13.4531 171.745 13.4258 171.882 13.3711C172.022 13.3125 172.145 13.2168 172.251 13.084C172.337 12.9707 172.409 12.8203 172.468 12.6328C172.53 12.4414 172.571 12.2617 172.591 12.0938H173.03V15.3457H172.591C172.575 15.1582 172.532 14.9609 172.462 14.7539C172.395 14.543 172.325 14.3906 172.251 14.2969C172.13 14.1445 171.991 14.0449 171.835 13.998C171.682 13.9512 171.479 13.9277 171.225 13.9277H170.288V16.4238C170.288 16.6738 170.305 16.8711 170.341 17.0156C170.376 17.1602 170.444 17.2695 170.546 17.3438C170.647 17.418 170.786 17.4668 170.962 17.4902C171.137 17.5098 171.387 17.5195 171.712 17.5195C171.841 17.5195 172.011 17.5195 172.221 17.5195C172.432 17.5195 172.61 17.5117 172.755 17.4961C172.903 17.4805 173.055 17.4531 173.212 17.4141C173.372 17.3711 173.485 17.3145 173.552 17.2441C173.731 17.0566 173.919 16.7734 174.114 16.3945C174.313 16.0117 174.44 15.7305 174.495 15.5508H174.917ZM182.74 14.1855C182.916 14.3809 183.045 14.5957 183.127 14.8301C183.213 15.0605 183.256 15.3301 183.256 15.6387C183.256 16.373 182.984 16.9785 182.441 17.4551C181.898 17.9316 181.225 18.1699 180.42 18.1699C180.049 18.1699 179.678 18.1133 179.307 18C178.936 17.8828 178.615 17.7422 178.346 17.5781L178.094 18.0059H177.625L177.543 15.1582H178.018C178.115 15.5098 178.229 15.8281 178.357 16.1133C178.49 16.3945 178.664 16.6582 178.879 16.9043C179.082 17.1348 179.318 17.3184 179.588 17.4551C179.861 17.5918 180.178 17.6602 180.537 17.6602C180.807 17.6602 181.041 17.625 181.24 17.5547C181.443 17.4844 181.607 17.3848 181.732 17.2559C181.857 17.127 181.949 16.9766 182.008 16.8047C182.07 16.6289 182.102 16.4277 182.102 16.2012C182.102 15.8691 182.008 15.5605 181.82 15.2754C181.633 14.9863 181.354 14.7676 180.982 14.6191C180.729 14.5176 180.438 14.4062 180.109 14.2852C179.781 14.1602 179.498 14.043 179.26 13.9336C178.791 13.7227 178.426 13.4473 178.164 13.1074C177.906 12.7637 177.777 12.3164 177.777 11.7656C177.777 11.4492 177.842 11.1543 177.971 10.8809C178.1 10.6074 178.283 10.3633 178.521 10.1484C178.748 9.94531 179.016 9.78711 179.324 9.67383C179.633 9.55664 179.955 9.49805 180.291 9.49805C180.674 9.49805 181.016 9.55664 181.316 9.67383C181.621 9.79102 181.898 9.92773 182.148 10.084L182.389 9.68555H182.857L182.904 12.4453H182.43C182.344 12.1289 182.246 11.8262 182.137 11.5371C182.031 11.248 181.893 10.9863 181.721 10.752C181.553 10.5254 181.348 10.3457 181.105 10.2129C180.863 10.0762 180.566 10.0078 180.215 10.0078C179.844 10.0078 179.527 10.127 179.266 10.3652C179.004 10.6035 178.873 10.8945 178.873 11.2383C178.873 11.5977 178.957 11.8965 179.125 12.1348C179.293 12.3691 179.537 12.5625 179.857 12.7148C180.143 12.8516 180.422 12.9707 180.695 13.0723C180.973 13.1699 181.24 13.2754 181.498 13.3887C181.732 13.4902 181.957 13.6055 182.172 13.7344C182.391 13.8633 182.58 14.0137 182.74 14.1855ZM192.468 11.7363C192.468 12.1699 192.382 12.5547 192.21 12.8906C192.042 13.2227 191.808 13.498 191.507 13.7168C191.21 13.9355 190.884 14.0957 190.529 14.1973C190.173 14.2988 189.796 14.3496 189.398 14.3496H188.466V16.8691C188.466 17.0059 188.488 17.127 188.53 17.2324C188.577 17.334 188.671 17.4121 188.812 17.4668C188.882 17.4941 189.005 17.5195 189.181 17.543C189.361 17.5664 189.525 17.5801 189.673 17.584V18H186.105V17.584C186.198 17.5762 186.333 17.5625 186.509 17.543C186.689 17.5234 186.814 17.498 186.884 17.4668C187.001 17.416 187.085 17.3418 187.136 17.2441C187.191 17.1465 187.218 17.0215 187.218 16.8691V10.8691C187.218 10.7324 187.198 10.6094 187.159 10.5C187.12 10.3906 187.029 10.3086 186.884 10.2539C186.736 10.2031 186.587 10.168 186.439 10.1484C186.294 10.125 186.169 10.1094 186.064 10.1016V9.68555H189.861C190.634 9.68555 191.261 9.87305 191.741 10.248C192.226 10.6191 192.468 11.1152 192.468 11.7363ZM190.687 13.1543C190.82 12.9668 190.907 12.7734 190.95 12.5742C190.993 12.3711 191.015 12.1895 191.015 12.0293C191.015 11.8066 190.988 11.5801 190.933 11.3496C190.882 11.1191 190.792 10.918 190.663 10.7461C190.527 10.5625 190.347 10.4199 190.124 10.3184C189.902 10.2168 189.624 10.166 189.292 10.166H188.466V13.8398H189.064C189.486 13.8398 189.827 13.7754 190.089 13.6465C190.355 13.5137 190.554 13.3496 190.687 13.1543ZM202.981 18H199.518V17.584C199.823 17.5645 200.075 17.5254 200.274 17.4668C200.477 17.4082 200.579 17.3359 200.579 17.25C200.579 17.2148 200.575 17.1719 200.567 17.1211C200.559 17.0703 200.547 17.0254 200.532 16.9863L199.84 15.123H196.928C196.819 15.3965 196.729 15.6348 196.659 15.8379C196.592 16.041 196.532 16.2285 196.477 16.4004C196.426 16.5684 196.391 16.7051 196.371 16.8105C196.352 16.916 196.342 17.002 196.342 17.0684C196.342 17.2246 196.465 17.3457 196.711 17.4316C196.957 17.5176 197.235 17.5684 197.543 17.584V18H194.414V17.584C194.516 17.5762 194.643 17.5547 194.795 17.5195C194.948 17.4805 195.073 17.4297 195.17 17.3672C195.327 17.2617 195.448 17.1523 195.534 17.0391C195.62 16.9219 195.704 16.7617 195.786 16.5586C196.204 15.5156 196.664 14.3438 197.168 13.043C197.672 11.7422 198.121 10.584 198.516 9.56836H198.985L201.756 16.7402C201.815 16.8926 201.881 17.0156 201.955 17.1094C202.03 17.2031 202.133 17.2949 202.266 17.3848C202.356 17.4395 202.473 17.4863 202.618 17.5254C202.762 17.5605 202.883 17.5801 202.981 17.584V18ZM199.629 14.6016L198.37 11.3789L197.133 14.6016H199.629ZM213.611 10.1016C213.502 10.1055 213.334 10.1367 213.107 10.1953C212.88 10.2539 212.718 10.3145 212.621 10.377C212.48 10.4746 212.384 10.6621 212.334 10.9395C212.287 11.2168 212.263 11.5684 212.263 11.9941V18.082H211.754L206.714 11.2793V15.5684C206.714 16.0488 206.744 16.418 206.802 16.6758C206.865 16.9336 206.959 17.1172 207.084 17.2266C207.173 17.3125 207.359 17.3926 207.64 17.4668C207.921 17.541 208.107 17.5801 208.197 17.584V18H204.787V17.584C204.892 17.5762 205.07 17.5391 205.32 17.4727C205.57 17.4023 205.726 17.3398 205.789 17.2852C205.925 17.1758 206.019 17.0098 206.07 16.7871C206.121 16.5605 206.146 16.1758 206.146 15.6328V11.5371C206.146 11.3574 206.115 11.1777 206.052 10.998C205.99 10.8184 205.906 10.6797 205.8 10.582C205.66 10.4531 205.468 10.3438 205.226 10.2539C204.988 10.1602 204.795 10.1094 204.646 10.1016V9.68555H207.019L211.695 16.0254V12.0703C211.695 11.5859 211.664 11.2148 211.601 10.957C211.539 10.6953 211.449 10.5215 211.332 10.4355C211.222 10.3613 211.043 10.2891 210.793 10.2188C210.546 10.1484 210.359 10.1094 210.23 10.1016V9.68555H213.611V10.1016ZM211.502 7.24805C211.462 7.39648 211.404 7.54883 211.326 7.70508C211.248 7.86133 211.14 8.01562 211.004 8.16797C210.863 8.32031 210.714 8.44336 210.558 8.53711C210.406 8.62695 210.222 8.67188 210.007 8.67188C209.785 8.67188 209.589 8.64062 209.421 8.57812C209.254 8.51172 209.109 8.44336 208.988 8.37305C208.851 8.29492 208.72 8.22461 208.595 8.16211C208.474 8.09961 208.339 8.06836 208.191 8.06836C208.07 8.06836 207.978 8.08398 207.916 8.11523C207.857 8.14648 207.795 8.19922 207.728 8.27344C207.666 8.34375 207.603 8.4375 207.541 8.55469C207.478 8.66797 207.42 8.77148 207.365 8.86523L207.025 8.71875C207.064 8.59375 207.13 8.44336 207.224 8.26758C207.318 8.0918 207.42 7.9375 207.529 7.80469C207.646 7.66406 207.789 7.54492 207.957 7.44727C208.125 7.3457 208.3 7.29492 208.484 7.29492C208.703 7.29492 208.89 7.32812 209.046 7.39453C209.207 7.45703 209.353 7.52539 209.486 7.59961C209.634 7.68164 209.759 7.75195 209.861 7.81055C209.962 7.86914 210.087 7.89844 210.236 7.89844C210.392 7.89844 210.517 7.88086 210.611 7.8457C210.709 7.80664 210.785 7.75391 210.839 7.6875C210.902 7.61328 210.953 7.5332 210.992 7.44727C211.035 7.36133 211.086 7.25 211.144 7.11328L211.502 7.24805ZM223.843 18H220.38V17.584C220.684 17.5645 220.936 17.5254 221.136 17.4668C221.339 17.4082 221.44 17.3359 221.44 17.25C221.44 17.2148 221.436 17.1719 221.429 17.1211C221.421 17.0703 221.409 17.0254 221.393 16.9863L220.702 15.123H217.79C217.68 15.3965 217.591 15.6348 217.52 15.8379C217.454 16.041 217.393 16.2285 217.339 16.4004C217.288 16.5684 217.253 16.7051 217.233 16.8105C217.214 16.916 217.204 17.002 217.204 17.0684C217.204 17.2246 217.327 17.3457 217.573 17.4316C217.819 17.5176 218.096 17.5684 218.405 17.584V18H215.276V17.584C215.378 17.5762 215.505 17.5547 215.657 17.5195C215.809 17.4805 215.934 17.4297 216.032 17.3672C216.188 17.2617 216.309 17.1523 216.395 17.0391C216.481 16.9219 216.565 16.7617 216.647 16.5586C217.065 15.5156 217.526 14.3438 218.03 13.043C218.534 11.7422 218.983 10.584 219.378 9.56836H219.846L222.618 16.7402C222.677 16.8926 222.743 17.0156 222.817 17.1094C222.891 17.2031 222.995 17.2949 223.128 17.3848C223.218 17.4395 223.335 17.4863 223.479 17.5254C223.624 17.5605 223.745 17.5801 223.843 17.584V18ZM220.491 14.6016L219.231 11.3789L217.995 14.6016H220.491Z" fill="#2D2D2D"/>
</svg>
